<?xml version="1.0" encoding="UTF-8" standalone="no"?>
<!DOCTYPE svg PUBLIC "-//W3C//DTD SVG 1.1//EN"
 "http://www.w3.org/Graphics/SVG/1.1/DTD/svg11.dtd">
<!-- Generated by graphviz version 2.47.3 (0)
 -->
<!-- Pages: 1 -->
<svg width="731pt" height="355pt"
 viewBox="0.00 0.00 731.35 355.00" xmlns="http://www.w3.org/2000/svg" xmlns:xlink="http://www.w3.org/1999/xlink">
<g id="graph0" class="graph" transform="scale(1 1) rotate(0) translate(4 351)">
<polygon fill="#333333" stroke="transparent" points="-4,4 -4,-351 727.35,-351 727.35,4 -4,4"/>
<text text-anchor="middle" x="361.67" y="-9.2" font-family="Times,serif" font-size="16.00" fill="white">Network Map</text>
<!-- SW1 -->
<g id="node1" class="node">
<title>SW1</title>
<polygon fill="#006699" stroke="#006699" points="400.35,-99 310.35,-99 310.35,-26 400.35,-26 400.35,-99"/>
<text text-anchor="middle" x="355.35" y="-58.8" font-family="Helvetica,sans-Serif" font-size="14.00" fill="white">SW1</text>
</g>
<!-- R6 -->
<g id="node3" class="node">
<title>R6</title>
<polygon fill="#006699" stroke="#006699" points="78.85,-223 1.85,-223 1.85,-150 78.85,-150 78.85,-223"/>
<text text-anchor="middle" x="40.35" y="-182.8" font-family="Helvetica,sans-Serif" font-size="14.00" fill="white">R6</text>
</g>
<!-- SW1&#45;&#45;R6 -->
<g id="edge4" class="edge">
<title>SW1&#45;&#45;R6</title>
<path fill="none" stroke="green" stroke-dasharray="5,2" d="M310.28,-65.63C235.93,-70.09 92.21,-82.97 56.35,-117 47.4,-125.49 43.02,-137.94 41,-149.91"/>
<text text-anchor="middle" x="97.35" y="-120.8" font-family="Courier,monospace" font-size="14.00" fill="white"> &#160;&#160;&#160;&#160;&#160;&#160;&#160;&#160;&#160;&#160;&#160;</text>
<text text-anchor="middle" x="20.5" y="-138.71" font-family="Courier,monospace" font-size="14.00" fill="white">Eth0/1</text>
<text text-anchor="middle" x="289.78" y="-54.43" font-family="Courier,monospace" font-size="14.00" fill="white">Eth0/5</text>
</g>
<!-- R1 -->
<g id="node4" class="node">
<title>R1</title>
<polygon fill="#006699" stroke="#006699" points="235.85,-223 158.85,-223 158.85,-150 235.85,-150 235.85,-223"/>
<text text-anchor="middle" x="197.35" y="-182.8" font-family="Helvetica,sans-Serif" font-size="14.00" fill="white">R1</text>
</g>
<!-- SW1&#45;&#45;R1 -->
<g id="edge1" class="edge">
<title>SW1&#45;&#45;R1</title>
<path fill="none" stroke="green" stroke-dasharray="5,2" d="M309.95,-68.65C254.67,-75.97 166.21,-91.41 146.35,-117 135.8,-130.59 145.28,-145.92 158.81,-158.64"/>
<text text-anchor="middle" x="187.35" y="-120.8" font-family="Courier,monospace" font-size="14.00" fill="white"> &#160;&#160;&#160;&#160;&#160;&#160;&#160;&#160;&#160;&#160;&#160;</text>
<text text-anchor="middle" x="138.31" y="-147.44" font-family="Courier,monospace" font-size="14.00" fill="white">Eth0/0</text>
<text text-anchor="middle" x="289.45" y="-72.45" font-family="Courier,monospace" font-size="14.00" fill="white">Eth0/1</text>
</g>
<!-- R3 -->
<g id="node5" class="node">
<title>R3</title>
<polygon fill="#006699" stroke="#006699" points="419.85,-223 342.85,-223 342.85,-150 419.85,-150 419.85,-223"/>
<text text-anchor="middle" x="381.35" y="-182.8" font-family="Helvetica,sans-Serif" font-size="14.00" fill="white">R3</text>
</g>
<!-- SW1&#45;&#45;R3 -->
<g id="edge3" class="edge">
<title>SW1&#45;&#45;R3</title>
<path fill="none" stroke="green" stroke-dasharray="5,2" d="M353.04,-99.04C353.1,-109.75 353.92,-121.45 356.35,-132 357.72,-138 359.83,-144.12 362.25,-149.98"/>
<text text-anchor="middle" x="397.35" y="-120.8" font-family="Courier,monospace" font-size="14.00" fill="white"> &#160;&#160;&#160;&#160;&#160;&#160;&#160;&#160;&#160;&#160;&#160;</text>
<text text-anchor="middle" x="341.75" y="-138.78" font-family="Courier,monospace" font-size="14.00" fill="white">Eth0/0</text>
<text text-anchor="middle" x="332.54" y="-102.84" font-family="Courier,monospace" font-size="14.00" fill="white">Eth0/3</text>
</g>
<!-- R2 -->
<g id="node6" class="node">
<title>R2</title>
<polygon fill="#006699" stroke="#006699" points="642.85,-223 565.85,-223 565.85,-150 642.85,-150 642.85,-223"/>
<text text-anchor="middle" x="604.35" y="-182.8" font-family="Helvetica,sans-Serif" font-size="14.00" fill="white">R2</text>
</g>
<!-- SW1&#45;&#45;R2 -->
<g id="edge2" class="edge">
<title>SW1&#45;&#45;R2</title>
<path fill="none" stroke="green" stroke-dasharray="5,2" d="M400.51,-71.84C436.74,-79.82 488.03,-94.09 528.35,-117 543.79,-125.78 558.77,-138.15 571.28,-149.97"/>
<text text-anchor="middle" x="590.35" y="-120.8" font-family="Courier,monospace" font-size="14.00" fill="white"> &#160;&#160;&#160;&#160;&#160;&#160;&#160;&#160;&#160;&#160;&#160;</text>
<text text-anchor="middle" x="550.78" y="-138.77" font-family="Courier,monospace" font-size="14.00" fill="white">Eth0/0</text>
<text text-anchor="middle" x="421.01" y="-60.64" font-family="Courier,monospace" font-size="14.00" fill="white">Eth0/2</text>
</g>
<!-- SW2 -->
<g id="node2" class="node">
<title>SW2</title>
<polygon fill="#006699" stroke="#006699" points="649.35,-347 559.35,-347 559.35,-274 649.35,-274 649.35,-347"/>
<text text-anchor="middle" x="604.35" y="-306.8" font-family="Helvetica,sans-Serif" font-size="14.00" fill="white">SW2</text>
</g>
<!-- R1&#45;&#45;SW1 -->
<g id="edge5" class="edge">
<title>R1&#45;&#45;SW1</title>
<path fill="none" stroke="green" stroke-dasharray="5,2" d="M231.37,-149.77C242.67,-138.72 255.62,-126.86 268.35,-117 281.38,-106.9 296.43,-97.07 310.3,-88.66"/>
<text text-anchor="middle" x="309.35" y="-120.8" font-family="Courier,monospace" font-size="14.00" fill="white"> &#160;&#160;&#160;&#160;&#160;&#160;&#160;&#160;&#160;&#160;&#160;</text>
<text text-anchor="middle" x="289.8" y="-92.46" font-family="Courier,monospace" font-size="14.00" fill="white">Eth0/1</text>
<text text-anchor="middle" x="210.87" y="-138.57" font-family="Courier,monospace" font-size="14.00" fill="white">Eth0/0</text>
</g>
<!-- R3&#45;&#45;SW1 -->
<g id="edge8" class="edge">
<title>R3&#45;&#45;SW1</title>
<path fill="none" stroke="green" stroke-dasharray="5,2" d="M420.04,-161.84C435.26,-149.37 447.23,-133.3 438.35,-117 430.06,-101.8 415.39,-90.26 400.67,-81.87"/>
<text text-anchor="middle" x="483.35" y="-120.8" font-family="Courier,monospace" font-size="14.00" fill="white"> &#160;&#160;&#160;&#160;&#160;&#160;&#160;&#160;&#160;&#160;&#160;</text>
<text text-anchor="middle" x="421.17" y="-85.67" font-family="Courier,monospace" font-size="14.00" fill="white">Eth0/3</text>
<text text-anchor="middle" x="440.54" y="-150.64" font-family="Courier,monospace" font-size="14.00" fill="white">Eth0/0</text>
</g>
<!-- R5 -->
<g id="node7" class="node">
<title>R5</title>
<polygon fill="#006699" stroke="#006699" points="380.85,-347 303.85,-347 303.85,-274 380.85,-274 380.85,-347"/>
<text text-anchor="middle" x="342.35" y="-306.8" font-family="Helvetica,sans-Serif" font-size="14.00" fill="white">R5</text>
</g>
<!-- R3&#45;&#45;R5 -->
<g id="edge10" class="edge">
<title>R3&#45;&#45;R5</title>
<path fill="none" stroke="green" stroke-dasharray="5,2" d="M351.82,-223.04C348.37,-228.75 345.37,-234.83 343.35,-241 339.94,-251.4 338.86,-263.17 338.86,-273.99"/>
<text text-anchor="middle" x="384.35" y="-244.8" font-family="Courier,monospace" font-size="14.00" fill="white"> &#160;&#160;&#160;&#160;&#160;&#160;&#160;&#160;&#160;&#160;&#160;</text>
<text text-anchor="middle" x="318.36" y="-262.79" font-family="Courier,monospace" font-size="14.00" fill="white">Eth0/0</text>
<text text-anchor="middle" x="331.32" y="-226.84" font-family="Courier,monospace" font-size="14.00" fill="white">Eth0/2</text>
</g>
<!-- R4 -->
<g id="node8" class="node">
<title>R4</title>
<polygon fill="#006699" stroke="#006699" points="485.85,-347 408.85,-347 408.85,-274 485.85,-274 485.85,-347"/>
<text text-anchor="middle" x="447.35" y="-306.8" font-family="Helvetica,sans-Serif" font-size="14.00" fill="white">R4</text>
</g>
<!-- R3&#45;&#45;R4 -->
<g id="edge9" class="edge">
<title>R3&#45;&#45;R4</title>
<path fill="none" stroke="green" stroke-dasharray="5,2" d="M413.6,-223.02C417.92,-228.78 422.01,-234.88 425.35,-241 430.91,-251.2 435.34,-263.03 438.71,-273.95"/>
<text text-anchor="middle" x="473.35" y="-244.8" font-family="Courier,monospace" font-size="14.00" fill="white"> &#160;&#160;&#160;&#160;&#160;&#160;&#160;&#160;&#160;&#160;&#160;</text>
<text text-anchor="middle" x="418.21" y="-262.75" font-family="Courier,monospace" font-size="14.00" fill="white">Eth0/0</text>
<text text-anchor="middle" x="393.1" y="-226.82" font-family="Courier,monospace" font-size="14.00" fill="white">Eth0/1</text>
</g>
<!-- R2&#45;&#45;SW1 -->
<g id="edge6" class="edge">
<title>R2&#45;&#45;SW1</title>
<path fill="none" stroke="green" stroke-dasharray="5,2" d="M634.9,-149.99C640.97,-138.7 643.33,-126.66 635.35,-117 606.05,-81.58 471.86,-69.39 400.41,-65.37"/>
<text text-anchor="middle" x="682.35" y="-120.8" font-family="Courier,monospace" font-size="14.00" fill="white"> &#160;&#160;&#160;&#160;&#160;&#160;&#160;&#160;&#160;&#160;&#160;</text>
<text text-anchor="middle" x="420.91" y="-69.17" font-family="Courier,monospace" font-size="14.00" fill="white">Eth0/2</text>
<text text-anchor="middle" x="614.4" y="-138.79" font-family="Courier,monospace" font-size="14.00" fill="white">Eth0/0</text>
</g>
<!-- R2&#45;&#45;SW2 -->
<g id="edge7" class="edge">
<title>R2&#45;&#45;SW2</title>
<path fill="none" stroke="green" stroke-dasharray="5,2" d="M604.35,-223.12C604.35,-239.01 604.35,-257.7 604.35,-273.63"/>
<text text-anchor="middle" x="645.35" y="-244.8" font-family="Courier,monospace" font-size="14.00" fill="white"> &#160;&#160;&#160;&#160;&#160;&#160;&#160;&#160;&#160;&#160;&#160;</text>
<text text-anchor="middle" x="580.35" y="-262.43" font-family="Courier,monospace" font-size="14.00" fill="white">Eth0/11</text>
<text text-anchor="middle" x="583.85" y="-226.92" font-family="Courier,monospace" font-size="14.00" fill="white">Eth0/1</text>
</g>
</g>
</svg>
